<?xml version="1.0" standalone="no"?>
<!DOCTYPE svg PUBLIC "-//W3C//DTD SVG 1.1//EN" "http://www.w3.org/Graphics/SVG/1.1/DTD/svg11.dtd" >
<svg xmlns="http://www.w3.org/2000/svg">
<metadata>
This is a custom SVG webfont generated by Font Squirrel.
Copyright   : Copyright c 2005 Dalton Maag Ltd All rights reserved This font is for exclusive use by Vodafone only This font may not be altered in any way without prior consent of Dalton Maag Ltd DaMa is a trademark of Dalton Maag Ltd
Designer    : Dalton Maag Ltd
Foundry     : c Dalton Maag Ltd
Foundry URL : httpwwwdaltonmaagcom
</metadata>
<defs>
<font id="VodafoneRgRegular" horiz-adv-x="1050" >
<font-face units-per-em="2048" ascent="1638" descent="-410" />
<missing-glyph horiz-adv-x="389" />
<glyph unicode=" "  horiz-adv-x="389" />
<glyph unicode="&#x09;" horiz-adv-x="389" />
<glyph unicode="&#xa0;" horiz-adv-x="389" />
<glyph unicode="!" horiz-adv-x="385" d="M88 88q0 51 29.5 82t75.5 31q47 0 75.5 -31t28.5 -82t-28.5 -81t-75.5 -30q-45 0 -75 30t-30 81zM121 418v948h147v-948h-147z" />
<glyph unicode="&#x22;" horiz-adv-x="620" d="M98 760v606h140v-606h-140zM383 760v606h141v-606h-141z" />
<glyph unicode="#" horiz-adv-x="1150" d="M0 496v139h328v248h-328v137h328v346h131v-346h233v346h133v-346h326v-137h-326v-248h326v-139h-326v-344h-133v344h-233v-344h-131v344h-328zM459 635h233v248h-233v-248z" />
<glyph unicode="$" d="M76 168l100 111q47 -70 119 -116t164 -50v553q-115 51 -195 109.5t-111.5 130t-31.5 151.5q0 104 54 184t134 112.5t150 37.5v270h125v-270q145 -16 229 -84t115 -127l-99 -88q-45 68 -101 109.5t-144 51.5v-471q147 -76 222 -133t104.5 -132t29.5 -152q0 -86 -27.5 -155 t-74.5 -118t-113 -78.5t-141 -38.5v-276h-125v276q-123 2 -224.5 55.5t-158.5 137.5zM268 1067q0 -96 50.5 -146.5t140.5 -95.5v430q-80 -6 -135.5 -54t-55.5 -134zM584 111q84 8 144 70.5t60 172.5q0 92 -52 152q-52 58 -152 112v-507z" />
<glyph unicode="%" horiz-adv-x="1439" d="M51 92l1233 1282l92 -98l-1231 -1290zM66 1065q0 94 50 173t117.5 109.5t128.5 30.5q90 0 161 -50t103.5 -125t32.5 -138q0 -98 -52 -176t-117.5 -107.5t-127 -29.5t-115.5 24.5t-94 67.5t-63.5 99t-23.5 122zM190 1067q0 -57 32 -106.5t68 -64.5t70 -15q82 0 126 62.5 t44 123.5q0 55 -28.5 99t-67.5 65.5t-74 21.5q-53 0 -96 -33.5t-58.5 -74.5t-15.5 -78zM797 299q0 90 48 171t116.5 111.5t130.5 30.5q90 0 160.5 -50t103.5 -125t33 -138q0 -98 -52.5 -176t-118 -107.5t-127 -29.5t-115.5 24.5t-94 67.5t-62.5 99t-22.5 122zM920 301 q0 -57 31.5 -106.5t67.5 -64.5t71 -15q88 0 130 63.5t42 122.5q0 37 -13.5 71t-37 59.5t-55.5 40.5t-66 15q-53 0 -96.5 -33.5t-58.5 -74.5t-15 -78z" />
<glyph unicode="&#x26;" horiz-adv-x="1257" d="M57 348q0 109 48.5 197t122 144t137.5 89l51 27l-27 31q-72 82 -97.5 139t-25.5 129q0 84 48.5 151.5t126 94t155.5 26.5q82 0 141.5 -22.5t100.5 -56t66.5 -73.5t41.5 -73l-115 -88q-68 113 -123 150.5t-114 37.5q-86 0 -128 -41t-42 -108q0 -53 26.5 -97t73.5 -104 l369 -477l215 299l104 -88l-231 -320l223 -315h-170l-143 199q-70 -80 -141.5 -131.5t-144.5 -71t-146 -19.5q-113 0 -189.5 33t-124 86t-68 119.5t-20.5 132.5zM209 348q0 -70 31.5 -129t92 -87t132.5 -28q70 0 137.5 34t115.5 82t79 87l-301 402l-35 -19 q-147 -80 -199.5 -164t-52.5 -178z" />
<glyph unicode="'" horiz-adv-x="331" d="M98 760v606h135v-606h-135z" />
<glyph unicode="(" horiz-adv-x="559" d="M86 698q0 150 30.5 276t84 227.5t125 176t151.5 123.5l72 -92q-86 -68 -146.5 -137.5t-98.5 -153.5t-55.5 -186.5t-17.5 -233.5q0 -137 27 -248.5t72 -200.5t104.5 -159t124.5 -121l-67 -102q-86 59 -160 140t-128 184.5t-86 229t-32 277.5z" />
<glyph unicode=")" horiz-adv-x="561" d="M0 -31q111 86 187.5 206t108.5 253t32 270q0 190 -39 325.5t-116 226.5t-163 159l72 92q131 -82 222 -213t130 -285.5t39 -304.5q0 -215 -67.5 -393t-159.5 -277.5t-178 -160.5z" />
<glyph unicode="*" horiz-adv-x="827" d="M68 924l247 172l-247 178l61 102l227 -164v273h111v-273l231 162l62 -98l-250 -178l248 -178l-56 -107l-235 168v-287h-111v287l-233 -166z" />
<glyph unicode="+" d="M66 608v144h391v448h137v-448h391v-144h-391v-450h-137v450h-391z" />
<glyph unicode="," horiz-adv-x="374" d="M68 -176q35 31 67.5 72t36.5 77q-35 4 -66.5 34t-31.5 83q0 45 27.5 82t82.5 37q53 0 81 -41t28 -96q0 -100 -63.5 -186.5t-116.5 -125.5z" />
<glyph unicode="-" horiz-adv-x="567" d="M84 461v145h401v-145h-401z" />
<glyph unicode="." horiz-adv-x="385" d="M84 92q0 53 30.5 85t78.5 32q49 0 78.5 -32t29.5 -85t-29.5 -84t-78.5 -31q-47 0 -78 31t-31 84z" />
<glyph unicode="/" horiz-adv-x="933" d="M0 27l819 1525l115 -67l-815 -1532z" />
<glyph unicode="0" d="M61 676q0 211 64.5 382t171 245.5t229.5 74.5q168 0 277.5 -121.5t147.5 -285.5t38 -295q0 -213 -65.5 -383t-172 -246t-225.5 -76q-121 0 -208 61.5t-144 161t-85 225.5t-28 257zM225 677.5q0 -102.5 17.5 -202.5t54.5 -180t93 -129t136 -49q109 0 178.5 96t94 229 t24.5 236q0 164 -41 296t-110.5 194.5t-145.5 62.5q-80 0 -137 -48t-93 -126t-53.5 -177.5t-17.5 -202z" />
<glyph unicode="1" d="M154 1081l389 271h137v-1352h-158v1165l-293 -196z" />
<glyph unicode="2" d="M100 1182q59 61 128 108t141.5 67.5t146.5 20.5q131 0 220 -59t123 -141t34 -162q0 -131 -58.5 -231.5t-189.5 -215.5l-196 -172q-96 -82 -131 -137t-35 -121h643v-139h-811v90q0 121 37.5 190.5t140.5 163.5l180 164q178 162 215 232.5t37 154.5q0 117 -58.5 177.5 t-166.5 60.5q-78 0 -153 -37t-169 -131z" />
<glyph unicode="3" d="M72 111l67 133q76 -66 149.5 -96.5t174.5 -30.5q86 0 153.5 35.5t98 104.5t30.5 149q0 115 -50 180t-124.5 84.5t-144.5 19.5q-53 0 -139 -10v113q70 102 187.5 233t191.5 184h-574v140h752v-160q-86 -53 -196.5 -169t-184.5 -214q8 2 39 2q133 0 228 -53.5t136 -145.5 t41 -194q0 -150 -72.5 -257.5t-176 -146.5t-191.5 -39q-133 0 -231 38.5t-164 99.5z" />
<glyph unicode="4" d="M76 344v145l639 861h98v-869h141v-137h-141v-344h-145v344h-592zM225 481h443v592z" />
<glyph unicode="5" d="M86 106l64 140q55 -49 139 -89t188 -40q94 0 163 40t96.5 109.5t27.5 149.5q0 147 -89 232t-269 85q-72 0 -121 -7t-84 -15v639h669v-140h-524v-352q59 8 98 8q223 0 349.5 -115.5t126.5 -326.5q0 -168 -75 -276.5t-176.5 -141.5t-193.5 -33q-96 0 -180 25t-137.5 55 t-71.5 53z" />
<glyph unicode="6" d="M133 514q0 209 56.5 372t154.5 273.5t235.5 158.5t284.5 48l31 -123q-190 0 -348 -99.5t-217 -338.5q51 35 110.5 55.5t126.5 20.5q131 0 221.5 -76t126 -182.5t35.5 -198.5t-27.5 -174t-78.5 -143.5t-125 -97.5t-166 -36q-111 0 -190.5 46.5t-131 122t-75 173 t-23.5 199.5zM293 514q0 -66 12 -137.5t43 -131t81 -97t126 -37.5q82 0 142.5 53t80 125.5t19.5 130.5q0 100 -37 176t-99.5 109.5t-123.5 33.5q-68 0 -127.5 -22.5t-106.5 -59.5q-10 -59 -10 -143z" />
<glyph unicode="7" d="M115 1210v140h848v-140q-219 -289 -339 -594t-149 -616h-164q16 217 92 457.5t182.5 429t211.5 323.5h-682z" />
<glyph unicode="8" d="M117 371q0 106 46 194t140 140q-76 53 -121 135t-45 174q0 131 72 219t159 116.5t158 28.5q117 0 210 -53t134 -133t41 -168q0 -98 -44 -179t-117 -138q90 -47 136 -138.5t46 -195.5q0 -147 -74 -242.5t-165 -126.5t-166.5 -31t-149.5 25t-131.5 75t-93 125t-35.5 173z M266 373q0 -92 47 -154.5t105.5 -83t107.5 -20.5q78 0 139.5 35.5t89 94t27.5 124.5q0 90 -46 154.5t-106.5 89t-105.5 24.5q-78 0 -141 -42t-90 -101.5t-27 -120.5zM289 1014q0 -59 20.5 -105.5t54 -77t75.5 -46t85 -15.5q70 0 128.5 39t83 92t24.5 113q0 82 -41 135 t-96.5 72.5t-96.5 19.5q-72 0 -131 -35t-82.5 -85t-23.5 -107z" />
<glyph unicode="9" d="M121 928q0 143 61.5 250.5t152.5 153.5t183 46q154 0 253 -91t133 -220t34 -229q0 -209 -52 -370t-143.5 -268.5t-216.5 -162.5t-270 -55q-37 0 -49 2l18 135q10 0 17.5 -1t17.5 -1q123 0 225.5 51t165 154.5t90.5 224.5q-51 -35 -110.5 -55.5t-126.5 -20.5 q-92 0 -163 37t-120 100.5t-74.5 145.5t-25.5 174zM274 932q0 -66 16.5 -123t49.5 -101t81 -70t114 -26q68 0 127 22.5t106 59.5q10 57 10 144q0 115 -29.5 208t-94 144t-138.5 51q-90 0 -148.5 -58.5t-76 -126t-17.5 -124.5z" />
<glyph unicode=":" horiz-adv-x="385" d="M84 92q0 53 30.5 85t78.5 32q49 0 78.5 -32t29.5 -85t-29.5 -84t-78.5 -31q-47 0 -78 31t-31 84zM84 860q0 53 30.5 85t78.5 32q49 0 78.5 -32t29.5 -85t-29.5 -84t-78.5 -31q-47 0 -78 31t-31 84z" />
<glyph unicode=";" horiz-adv-x="397" d="M68 -176q35 31 67.5 72t36.5 77q-35 4 -66.5 34t-31.5 83q0 45 27.5 82t82.5 37q53 0 81 -41t28 -96q0 -100 -63.5 -186.5t-116.5 -125.5zM109 860q0 53 30.5 85t77.5 32q49 0 79 -32t30 -85t-30 -84t-79 -31q-47 0 -77.5 31t-30.5 84z" />
<glyph unicode="&#x3c;" d="M104 623v118l795 320l55 -137l-602 -238l629 -256l-55 -147z" />
<glyph unicode="=" d="M66 303v143h919v-143h-919zM66 764v141h919v-141h-919z" />
<glyph unicode="&#x3e;" d="M104 430l629 256l-604 238l57 137l795 -320v-118l-823 -340z" />
<glyph unicode="?" horiz-adv-x="720" d="M-23 1139q72 127 173.5 183t205.5 56q174 0 263.5 -93t89.5 -247q0 -104 -41 -175.5t-109 -145.5q-92 -100 -119.5 -153.5t-27.5 -112.5v-74h-144v86q0 96 45 165.5t99 129.5q68 74 105.5 131t37.5 143q0 104 -53 159.5t-152 55.5q-88 0 -153.5 -54t-116.5 -132zM236 88 q0 51 29.5 82t74.5 31q47 0 75.5 -31t28.5 -82t-28.5 -81t-75.5 -30q-45 0 -74.5 30t-29.5 81z" />
<glyph unicode="@" horiz-adv-x="1509" d="M102 479q0 174 47.5 330t138.5 271.5t227 183t314 67.5q209 0 327 -82t151.5 -182t33.5 -174v-825h-149v59q-41 -35 -108.5 -58.5t-141.5 -23.5q-80 0 -146.5 32t-114.5 90t-75.5 139t-27.5 179q0 145 58 247t143 140.5t163 38.5q82 0 143.5 -21.5t106.5 -49.5v43 q0 147 -88 233t-275 86q-150 0 -258 -60.5t-177.5 -159.5t-102.5 -230t-33 -273q0 -113 29.5 -233.5t113.5 -223t220.5 -151.5t296.5 -51q168 0 282.5 29.5t192.5 62.5l34 -143q-96 -43 -255.5 -67t-276.5 -24q-168 0 -291 39t-211 104.5t-144 149.5t-89 172t-45.5 176 t-12.5 160zM729 494q0 -66 14.5 -123.5t42 -102.5t67.5 -70.5t89 -25.5q80 0 141.5 20.5t106.5 55.5v473q-117 63 -238 63q-106 0 -164.5 -77.5t-58.5 -212.5z" />
<glyph unicode="A" horiz-adv-x="1105" d="M0 0l485 1366h127l494 -1366h-170l-154 422h-475l-143 -422h-164zM358 567h373l-188 566z" />
<glyph unicode="B" horiz-adv-x="1044" d="M158 0v1366h368q197 0 295.5 -94t98.5 -254q0 -131 -71 -202t-181 -91q94 -12 167.5 -56t112.5 -120t39 -168q0 -133 -59.5 -223t-148.5 -124t-171 -34h-450zM313 141h289q98 0 158.5 60.5t60.5 183.5q0 260 -301 260h-207v-504zM313 786h201q117 0 180.5 66t63.5 172 q0 201 -226 201h-219v-439z" />
<glyph unicode="C" horiz-adv-x="1107" d="M96 678q0 264 92.5 436t216 225.5t224.5 53.5q141 0 241.5 -59.5t176.5 -188.5l-115 -94q-53 74 -92 110.5t-98.5 59t-116.5 22.5q-172 0 -268.5 -147.5t-96.5 -419.5q0 -133 29.5 -236.5t80 -174t120 -106.5t149.5 -36q119 0 192.5 37t141.5 102l57 -147 q-76 -76 -191.5 -109t-201.5 -33q-115 0 -213 40t-171 125t-115 218.5t-42 321.5z" />
<glyph unicode="D" horiz-adv-x="1189" d="M158 0v1366h334q78 0 158.5 -13.5t150.5 -47.5q106 -55 180 -146.5t106.5 -215.5t32.5 -241q0 -199 -58 -342t-157.5 -227t-198 -108.5t-214.5 -24.5h-334zM313 141h160q123 0 197 29q86 39 156.5 115.5t99 185.5t28.5 223q0 178 -51 287t-141 170q-57 39 -133 56.5 t-148 17.5h-168v-1084z" />
<glyph unicode="E" horiz-adv-x="999" d="M158 0v1366h757v-141h-602v-439h430v-141h-432v-504h650v-141h-803z" />
<glyph unicode="F" horiz-adv-x="897" d="M158 0v1366h735v-141h-580v-461h428v-141h-430v-623h-153z" />
<glyph unicode="G" horiz-adv-x="1161" d="M96 678q0 272 90 441t210 221.5t222 52.5q88 0 154 -18.5t117 -51.5t89 -78t69 -98l-115 -96q-59 90 -127 143t-172 53q-123 0 -213 -78.5t-125 -211t-35 -281.5q0 -133 32 -237.5t85 -176.5t123.5 -108.5t150.5 -36.5q88 0 152.5 11t105.5 26v356h-215v143h371v-602 q-57 -27 -169 -52.5t-247 -25.5q-115 0 -215 40t-175 125t-119 218.5t-44 321.5z" />
<glyph unicode="H" horiz-adv-x="1273" d="M158 0v1366h155v-592h650v592h153v-1366h-153v629h-650v-629h-155z" />
<glyph unicode="I" horiz-adv-x="471" d="M158 0v1366h155v-1366h-155z" />
<glyph unicode="J" horiz-adv-x="712" d="M-8 41l51 139q18 -20 75.5 -41.5t119.5 -21.5q90 0 138 49t48 176v1024h156v-1038q0 -178 -86 -264.5t-248 -86.5q-98 0 -160.5 22t-93.5 42z" />
<glyph unicode="K" horiz-adv-x="1107" d="M158 2v1364h155v-596h166q57 0 99.5 27.5t85.5 124.5l194 444h168l-207 -463q-33 -72 -67.5 -113.5t-75.5 -58.5q59 -16 93 -55t62 -111l226 -565h-166l-174 424q-51 117 -73.5 148.5t-59.5 48t-80 16.5h-191v-635h-155z" />
<glyph unicode="L" horiz-adv-x="954" d="M158 0v1366h155v-1225h602v-141h-757z" />
<glyph unicode="M" horiz-adv-x="1462" d="M131 0l59 1366h183l356 -1116l371 1116h180l57 -1366h-149l-47 1055l-369 -1078h-102l-357 1084l-47 -1061h-135z" />
<glyph unicode="N" horiz-adv-x="1280" d="M158 0v1366h157l654 -1018v1018h153v-1366h-114l-697 1083v-1083h-153z" />
<glyph unicode="O" horiz-adv-x="1286" d="M96 684q0 213 74 385t201 248t272 76q203 0 332 -123t172 -288t43 -298t-32 -261t-98.5 -227.5t-170 -161t-246.5 -61.5t-246.5 61.5t-170 161t-98.5 227.5t-32 261zM258 684q0 -106 23.5 -207.5t70.5 -181.5t120 -128t171 -48q139 0 233.5 100t123 229.5t28.5 235.5 q0 168 -51 302t-142.5 197.5t-191.5 63.5q-143 0 -235.5 -99t-121 -229.5t-28.5 -234.5z" />
<glyph unicode="P" horiz-adv-x="1038" d="M158 0v1366h405q223 0 330.5 -104.5t107.5 -309.5q0 -199 -113.5 -301t-330.5 -102h-244v-549h-155zM313 692h254q119 0 194 61.5t75 203t-71 205t-200 63.5h-252v-533z" />
<glyph unicode="Q" horiz-adv-x="1286" d="M96 684q0 213 74 385t201 248t272 76q203 0 332 -123t172 -288t43 -298q0 -113 -21.5 -220.5t-68.5 -199.5q125 -94 233 -239l-106 -93q-86 111 -207 211q-66 -78 -160 -124t-217 -46q-143 0 -246.5 61.5t-170 161t-98.5 227.5t-32 261zM258 684q0 -106 23.5 -207.5 t70.5 -181.5t120 -128t171 -48q78 0 138.5 29.5t107.5 82.5q-106 59 -250 107l45 135q162 -51 281 -121q33 72 48 157t15 175q0 168 -51 302t-142.5 197.5t-191.5 63.5q-143 0 -235.5 -99t-121 -229.5t-28.5 -234.5z" />
<glyph unicode="R" horiz-adv-x="1128" d="M158 0v1366h415q217 0 320.5 -102.5t103.5 -270.5q0 -106 -44 -184t-96 -109.5t-81 -40.5q70 -25 104.5 -83t59.5 -148l29 -101l32 -116l56 -211h-160l-55 213q-39 147 -86 260q-27 55 -47.5 77.5t-60.5 35t-81 12.5h-254v-598h-155zM313 739h252q270 0 271 254 q0 117 -67 174.5t-191 57.5h-265v-486z" />
<glyph unicode="S" horiz-adv-x="1003" d="M78 109l67 145q76 -63 160 -100t187 -37q86 0 151.5 30.5t94 87t28.5 119.5q0 100 -70.5 159.5t-234.5 123.5q-121 43 -205 100.5t-120 130t-36 158.5q0 129 73 218t167 118t176 29q127 0 235.5 -48.5t180.5 -134.5l-76 -118q-145 156 -348 155q-115 0 -178.5 -54 t-63.5 -151q0 -78 43 -128t115 -83.5t147 -62.5q139 -57 215 -108.5t111 -125t35 -161.5q0 -152 -74 -247t-178.5 -123t-194.5 -30q-68 0 -130 12.5t-114.5 33t-93 44t-69.5 48.5z" />
<glyph unicode="T" horiz-adv-x="993" d="M18 1225v141h959v-141h-404v-1225h-153v1225h-402z" />
<glyph unicode="U" horiz-adv-x="1259" d="M150 457v909h155v-879q0 -174 85 -271t238.5 -97t239.5 94t86 274v879h156v-909q0 -172 -82 -289t-195.5 -155t-207.5 -40q-156 0 -270.5 70t-159.5 181.5t-45 232.5z" />
<glyph unicode="V" horiz-adv-x="1079" d="M0 1366h172l373 -1126l370 1126h164l-465 -1366h-143z" />
<glyph unicode="W" horiz-adv-x="1460" d="M0 1366h158l221 -1067l309 1067h115l276 -1059l224 1059h157l-315 -1366h-119l-289 1059l-311 -1059h-123z" />
<glyph unicode="X" horiz-adv-x="1003" d="M0 0l403 700l-368 666h188l279 -537l284 537h179l-369 -653l408 -713h-195l-311 586l-320 -586h-178z" />
<glyph unicode="Y" horiz-adv-x="1056" d="M0 1366h176l348 -553l363 553h170l-459 -709v-657h-156v655z" />
<glyph unicode="Z" horiz-adv-x="1040" d="M74 0v152l731 1073h-699v141h842v-176l-712 -1049h741v-141h-903z" />
<glyph unicode="[" horiz-adv-x="444" d="M137 -293v1800h287v-129h-148v-1540h148v-131h-287z" />
<glyph unicode="\" horiz-adv-x="919" d="M0 1485l127 74l793 -1498l-121 -84z" />
<glyph unicode="]" horiz-adv-x="444" d="M20 -162h148v1540h-148v129h287v-1800h-287v131z" />
<glyph unicode="^" horiz-adv-x="976" d="M119 651l309 719h113l317 -690l-133 -59l-242 526l-227 -549z" />
<glyph unicode="_" horiz-adv-x="1024" d="M0 -307h1024v-144h-1024v144z" />
<glyph unicode="`" horiz-adv-x="860" d="M217 1368l100 107l326 -285l-72 -76z" />
<glyph unicode="a" horiz-adv-x="915" d="M74 283q0 143 104.5 226t235.5 104.5t223 21.5v12q0 123 -50 176.5t-143 53.5q-66 0 -133 -26t-131 -77l-49 115q53 41 131 76.5t195 35.5q156 0 242.5 -83.5t86.5 -280.5v-637h-137l-6 84q-49 -51 -112.5 -79t-139.5 -28q-61 0 -117.5 19.5t-101.5 57.5t-71.5 95.5 t-26.5 133.5zM225 281q0 -66 38 -111t77 -54.5t70 -9.5q68 0 124 30t103 71v303q-131 -4 -226.5 -27.5t-140.5 -75.5t-45 -126z" />
<glyph unicode="b" horiz-adv-x="1019" d="M135 51v1315h150v-420q59 29 115.5 41t109.5 12q133 0 234.5 -73.5t143.5 -193.5t42 -245q0 -176 -77 -298.5t-182.5 -167t-203.5 -44.5q-106 0 -190.5 23.5t-141.5 50.5zM285 139q35 -16 78 -26.5t83 -10.5q158 0 248 105.5t90 284.5q0 131 -49 219t-118.5 123.5 t-133.5 35.5q-47 0 -97 -13t-101 -48v-670z" />
<glyph unicode="c" horiz-adv-x="921" d="M90 485q0 195 76 319t172 160.5t174 36.5q102 0 180 -39.5t114 -87t52 -75.5l-104 -78q-45 70 -97.5 111.5t-142.5 41.5q-86 0 -153.5 -58t-95 -146t-27.5 -180.5t23.5 -164t63.5 -120.5t93 -75t112 -26q94 0 157 29t112 76l43 -129q-53 -47 -138.5 -75t-181.5 -28 q-84 0 -161.5 31t-137 94.5t-96.5 158.5t-37 224z" />
<glyph unicode="d" horiz-adv-x="1019" d="M90 498q0 154 65.5 276.5t166 174.5t213.5 52q72 0 122 -11t84 -25v401h150v-1366h-137l-13 80q-51 -55 -109.5 -79t-129.5 -24q-98 0 -175 40t-129.5 110t-80 165t-27.5 206zM238 489q0 -129 42 -223t107.5 -128t138.5 -34q59 0 114.5 26t100.5 85v612q-37 20 -92 33.5 t-90 13.5q-115 0 -194.5 -67.5t-103 -156.5t-23.5 -161z" />
<glyph unicode="e" horiz-adv-x="989" d="M90 494q0 168 62.5 290.5t159 169.5t192.5 47q145 0 241.5 -75.5t132 -196.5t35.5 -231h-675q0 -184 79.5 -289t231.5 -105q90 0 159.5 31t125.5 78l38 -129q-45 -45 -138 -76t-189 -31q-209 0 -332 132.5t-123 384.5zM252 623h491q-4 84 -44 145t-97 85t-98 24 q-92 0 -159.5 -58.5t-92.5 -195.5z" />
<glyph unicode="f" horiz-adv-x="569" d="M39 848v129h137v72q0 131 44 212.5t110.5 106.5t128.5 25q86 0 164 -29l-15 -131q-29 14 -65.5 21.5t-71.5 7.5q-96 0 -120.5 -59.5t-24.5 -155.5v-70h221v-129h-219v-848h-152v848h-137z" />
<glyph unicode="g" horiz-adv-x="1019" d="M90 498q0 94 28.5 185t87 161.5t146.5 113.5t209 43q78 0 165 -15t165 -46v-944q0 -137 -60.5 -229.5t-162 -132.5t-205.5 -40q-84 0 -186.5 25t-141.5 49l35 137q55 -33 127 -56t164 -23q147 0 213.5 72.5t66.5 197.5v96q-51 -55 -109.5 -78.5t-129.5 -23.5 q-98 0 -175 38t-129.5 105.5t-80 160.5t-27.5 204zM238 489q0 -125 40.5 -217t106.5 -123.5t141 -31.5q59 0 114.5 25.5t100.5 84.5v617q-80 31 -182 30q-115 0 -194.5 -67.5t-103 -156.5t-23.5 -161z" />
<glyph unicode="h" horiz-adv-x="1048" d="M135 0v1366h150v-467q57 43 127.5 72.5t160.5 29.5q188 0 267.5 -100t79.5 -293v-608h-152v610q0 135 -52 199.5t-169 64.5q-74 0 -142.5 -35.5t-119.5 -74.5v-764h-150z" />
<glyph unicode="i" horiz-adv-x="419" d="M111 1249q0 47 29.5 74t70.5 27t69.5 -27t28.5 -74q0 -49 -28.5 -74.5t-69.5 -25.5t-70.5 25.5t-29.5 74.5zM135 0v977h152v-977h-152z" />
<glyph unicode="j" horiz-adv-x="419" d="M4 -281q94 68 112.5 120t18.5 126v1012h152v-1008q0 -143 -56.5 -228t-167.5 -144zM111 1249q0 47 29.5 74t70.5 27t69.5 -27t28.5 -74q0 -49 -28.5 -74.5t-69.5 -25.5t-70.5 25.5t-29.5 74.5z" />
<glyph unicode="k" horiz-adv-x="921" d="M135 1366h150v-752h100q57 0 102 30t88 126l91 207h161l-102 -225q-33 -72 -67.5 -119t-75.5 -64q57 -16 92 -50t63 -105l164 -414h-166l-110 272q-47 106 -70 142.5t-61.5 52.5t-83.5 16h-125v-483h-150v1366z" />
<glyph unicode="l" horiz-adv-x="507" d="M123 258v1108h149v-1133q0 -68 20.5 -97.5t63.5 -29.5q39 0 97 29l34 -117q-27 -14 -66.5 -25t-86.5 -11q-121 0 -166 67.5t-45 208.5z" />
<glyph unicode="m" horiz-adv-x="1611" d="M135 0v977h137l11 -78q47 35 120.5 68.5t161.5 33.5q74 0 142.5 -26.5t115.5 -97.5q59 51 142.5 87.5t183.5 36.5q143 0 217 -59t95.5 -156.5t21.5 -195.5v-590h-152v610q0 123 -45 191.5t-164 68.5q-74 0 -147.5 -36.5t-112.5 -71.5q18 -63 19 -172v-590h-150v610 q0 84 -22.5 145.5t-69.5 88t-102 26.5q-68 0 -134.5 -35.5t-117.5 -72.5v-762h-150z" />
<glyph unicode="n" horiz-adv-x="1052" d="M135 0v977h137l11 -78q57 45 133 73.5t159 28.5q193 0 271 -98t78 -295v-608h-150v612q0 123 -52 192.5t-171 69.5q-76 0 -145.5 -33.5t-120.5 -74.5v-766h-150z" />
<glyph unicode="o" horiz-adv-x="1042" d="M90 494q0 145 59.5 272t162 181t210.5 54q152 0 254.5 -87t140 -207.5t37.5 -217.5q0 -152 -64.5 -280.5t-162.5 -180t-205 -51.5q-109 0 -189.5 44.5t-134 117t-81 166t-27.5 189.5zM238 494q0 -117 40.5 -214.5t106.5 -136.5t137 -39q96 0 166 66t94.5 158t24.5 164 q0 113 -42 208t-107.5 136t-135.5 41q-104 0 -173.5 -70t-90 -155.5t-20.5 -157.5z" />
<glyph unicode="p" horiz-adv-x="1019" d="M135 -387v1364h135l13 -72q59 51 125.5 73.5t142.5 22.5q147 0 236.5 -86t116 -201.5t26.5 -213.5q0 -176 -75 -303t-181.5 -172t-206.5 -48q-111 0 -182 33v-397h-150zM285 147q23 -16 62.5 -29.5t90.5 -13.5q111 0 193 56.5t115.5 148.5t33.5 185q0 113 -33.5 203.5 t-96 133.5t-138.5 43q-63 0 -121.5 -28.5t-105.5 -75.5v-623z" />
<glyph unicode="q" horiz-adv-x="1026" d="M90 489q0 170 78 295t189.5 171t220.5 46q141 0 313 -26v-1362h-150v418q-45 -25 -101 -40.5t-122 -15.5q-90 0 -168 36t-136 102.5t-91 161.5t-33 214zM240 485q0 -84 24.5 -153.5t67.5 -119.5t99 -78t120 -28q53 0 104.5 18.5t85.5 41.5v694q-68 14 -161 14 q-100 0 -184.5 -57t-120 -146.5t-35.5 -185.5z" />
<glyph unicode="r" horiz-adv-x="604" d="M135 977h135l15 -98q55 51 115.5 86.5t129.5 35.5q37 0 84 -10l-18 -145q-39 8 -74 8q-66 0 -128 -38t-109 -85v-731h-150v977z" />
<glyph unicode="s" horiz-adv-x="800" d="M82 88l53 127q45 -39 113.5 -75t161.5 -36q94 0 142 37t48 117q0 102 -242 197q-139 51 -196.5 113.5t-57.5 164.5q0 119 83 193.5t221 74.5q109 0 186.5 -33.5t126.5 -80.5l-64 -113q-49 47 -110.5 74t-136.5 27q-86 0 -124 -41t-38 -91q0 -94 225 -176 q129 -47 197.5 -113.5t68.5 -185.5q0 -104 -52 -170.5t-129 -93.5t-148 -27q-86 0 -154 20.5t-113 47.5t-61 43z" />
<glyph unicode="t" horiz-adv-x="638" d="M37 848v129h160v266h149v-266h244v-129h-246v-625q0 -72 26.5 -95.5t67.5 -23.5q66 0 135 54l41 -119q-35 -25 -85 -43.5t-115 -18.5q-104 0 -160.5 56.5t-56.5 173.5v641h-160z" />
<glyph unicode="u" horiz-adv-x="1046" d="M129 358v619h150v-627q0 -129 56 -187.5t167 -58.5q72 0 142.5 32t115.5 77v764h153v-977h-139l-10 76q-57 -45 -123 -72t-164 -27q-184 0 -266 94t-82 287z" />
<glyph unicode="v" horiz-adv-x="868" d="M0 977h162l266 -809l289 809h151l-358 -977h-172z" />
<glyph unicode="w" horiz-adv-x="1286" d="M0 977h162l203 -760l235 760h92l232 -758l202 758h160l-287 -977h-137l-219 709l-221 -709h-135z" />
<glyph unicode="x" horiz-adv-x="784" d="M0 0l311 500l-297 477h166l211 -354l211 354h162l-293 -471l313 -506h-166l-227 375l-223 -375h-168z" />
<glyph unicode="y" horiz-adv-x="927" d="M-8 -256q147 0 222 37t122 102q29 47 45 82l-365 1012h168l293 -850q80 178 150.5 396t130.5 454h160q-96 -365 -184.5 -597.5t-155.5 -369.5q-39 -78 -81 -150.5t-103.5 -129t-154 -90t-231.5 -35.5z" />
<glyph unicode="z" horiz-adv-x="878" d="M78 0v154l553 694h-533v129h686v-162l-555 -686h570v-129h-721z" />
<glyph unicode="{" horiz-adv-x="487" d="M37 641v88q72 10 118 61.5t46 151.5v305q0 139 63.5 192.5t190.5 57.5l12 -104q-90 -4 -113.5 -44t-23.5 -132v-275q0 -111 -37 -169t-125 -89q88 -29 125 -87t37 -169v-276q0 -123 33.5 -147.5t103.5 -29.5l-12 -102q-127 2 -190.5 56.5t-63.5 193.5v305 q0 100 -46 151.5t-118 61.5z" />
<glyph unicode="|" horiz-adv-x="411" d="M137 -152v1663h139v-1663h-139z" />
<glyph unicode="}" horiz-adv-x="487" d="M20 -25q88 4 114 48.5t26 128.5v276q0 111 34.5 169t122.5 87q-88 31 -122.5 89t-34.5 169v275q0 86 -25.5 129t-114.5 47l13 104q127 -4 190.5 -57t63.5 -193v-305q0 -100 45 -151.5t119 -61.5v-88q-74 -10 -119 -61.5t-45 -151.5v-305q0 -139 -63.5 -193.5 t-190.5 -56.5z" />
<glyph unicode="~" horiz-adv-x="866" d="M-4 1038q16 137 83.5 215t190.5 78q66 0 106 -18.5t79 -46.5q29 -18 75 -60q43 -35 70 -35q80 0 107.5 47.5t35.5 116.5h127q-6 -109 -56 -185.5t-106.5 -99t-99.5 -22.5q-59 0 -97 18.5t-73 45.5l-84 67q-39 33 -80 33q-82 0 -113.5 -44t-39.5 -110h-125z" />
<glyph unicode="&#xa1;" horiz-adv-x="385" d="M88 891q0 51 28.5 80.5t76.5 29.5q45 0 74.5 -29.5t29.5 -80.5t-29.5 -82t-74.5 -31q-47 0 -76 31t-29 82zM117 -387v948h147v-948h-147z" />
<glyph unicode="&#xa2;" d="M176 690q0 121 52.5 212t127 130t144.5 49v285h106v-285q78 -2 136.5 -31.5t93.5 -60.5l-62 -108q-39 35 -80 53t-88 18v-532q41 2 82 15.5t72 31.5l47 -119q-35 -25 -91.5 -43t-109.5 -20v-293h-106v297q-154 23 -239 131t-85 270zM326 690q0 -111 45 -173t129 -91v524 q-78 -10 -126 -76.5t-48 -183.5z" />
<glyph unicode="&#xa3;" d="M90 514v139h133v308q0 205 95.5 311t271.5 106q131 0 214 -60.5t136 -162.5l-121 -94q-61 104 -117.5 136t-113.5 32q-106 0 -158.5 -64.5t-52.5 -212.5v-299h424v-139h-424v-375h569v-139h-723v514h-133z" />
<glyph unicode="&#xa4;" horiz-adv-x="1200" d="M66 285l141 141q-45 59 -70.5 130t-25.5 150.5t25.5 150.5t70.5 130l-141 141l94 95l143 -142q59 41 130 64.5t148.5 23.5t148.5 -23.5t130 -66.5l144 144l94 -95l-142 -141q96 -121 96.5 -280.5t-96.5 -280.5l142 -141l-94 -95l-142 144q-59 -43 -129.5 -66.5 t-150.5 -23.5q-78 0 -149 23.5t-130 66.5l-143 -144zM246 707q0 -104 56 -191.5t133 -120.5t147 -33q102 0 186 57.5t117 136.5t33 151q0 106 -57.5 191t-134.5 119t-144 34q-106 0 -186.5 -56.5t-115 -136t-34.5 -151.5z" />
<glyph unicode="&#xa5;" d="M31 1350h178l315 -553l330 553h170l-281 -463h131v-139h-215l-63 -107v-57h270v-140h-270v-444h-156v444h-278v140h278v55l-63 109h-215v139h135z" />
<glyph unicode="&#xa6;" horiz-adv-x="372" d="M117 -152v564h139v-564h-139zM117 946v565h139v-565h-139z" />
<glyph unicode="&#xa7;" horiz-adv-x="819" d="M100 575q0 80 40 142.5t96.5 93.5t103.5 43q-125 106 -148.5 156.5t-23.5 138.5q0 113 79 178.5t202 65.5q98 0 163.5 -40t106.5 -85l-76 -99q-39 49 -91 77t-106 28q-70 0 -108.5 -31t-38.5 -94q0 -61 53.5 -120.5t153.5 -149.5q111 -102 153.5 -149.5t59 -98.5 t16.5 -103q0 -96 -54 -161.5t-151 -110.5q74 -55 120 -114.5t46 -153.5q0 -90 -50 -159t-123.5 -96.5t-133.5 -27.5q-98 0 -166.5 32t-113.5 75l57 114q41 -45 96 -72.5t119 -27.5q82 0 129 39t47 106q0 82 -70.5 146.5t-167.5 134.5q-102 70 -160.5 142t-58.5 181zM240 578 q0 -78 52 -131.5t146 -122.5q74 29 118 81t44 117q0 94 -178 252q-80 -14 -131 -62t-51 -134z" />
<glyph unicode="&#xa8;" horiz-adv-x="860" d="M156 1309q0 47 29.5 73.5t70.5 26.5t69.5 -26.5t28.5 -73.5q0 -49 -28.5 -75t-69.5 -26t-70.5 26t-29.5 75zM506 1309q0 47 29.5 73.5t70.5 26.5t70 -26.5t29 -73.5q0 -49 -29 -75t-70 -26t-70.5 26t-29.5 75z" />
<glyph unicode="&#xa9;" horiz-adv-x="1589" d="M92 608q0 229 103.5 414.5t264.5 266.5t337 81q244 0 412.5 -132t228 -309t59.5 -321q0 -227 -100.5 -414.5t-264 -269.5t-337.5 -82q-176 0 -307.5 65.5t-219.5 173t-132 245t-44 282.5zM219 608q0 -121 37 -237.5t109.5 -207.5t180 -146.5t251.5 -55.5q197 0 337 110.5 t188 263t48 273.5q0 195 -85 351.5t-216 225t-272 68.5q-143 0 -252 -55t-180.5 -146t-108.5 -207t-37 -237zM422 604q0 174 62.5 287t150.5 149.5t168 36.5q115 0 184.5 -52t108.5 -122l-97 -61q-31 57 -76.5 91t-123.5 34q-111 0 -179.5 -91.5t-68.5 -271.5 q0 -174 72.5 -264t179.5 -90q68 0 116 36t87 93l94 -66q-47 -78 -118 -125t-181 -47q-80 0 -149.5 27t-120 83t-80 143t-29.5 210z" />
<glyph unicode="&#xaa;" horiz-adv-x="665" d="M68 977q0 109 73.5 170t167.5 77.5t164 16.5q0 86 -33.5 122t-97.5 36q-47 0 -94 -19.5t-92 -60.5l-50 94q41 35 101.5 64.5t144.5 29.5q117 0 181.5 -62.5t64.5 -209.5v-471h-115l-4 49q-29 -23 -75 -45.5t-99 -22.5q-45 0 -87 14.5t-75.5 44.5t-54 73t-20.5 100z M193 975q0 -61 40.5 -89t83.5 -28q47 0 87 19.5t69 44.5v211q-86 0 -151.5 -19.5t-97 -56.5t-31.5 -82z" />
<glyph unicode="&#xab;" horiz-adv-x="956" d="M29 512l379 418l100 -80l-283 -328l310 -321l-93 -90zM395 512l389 418l99 -76l-281 -332l307 -323l-90 -88z" />
<glyph unicode="&#xac;" d="M55 907v144h918v-752h-139v608h-779z" />
<glyph unicode="&#xad;" horiz-adv-x="567" d="M84 461v145h401v-145h-401z" />
<glyph unicode="&#xae;" horiz-adv-x="1589" d="M92 608q0 229 103.5 414.5t264.5 266.5t337 81q244 0 412.5 -132t228 -309t59.5 -321q0 -227 -100.5 -414.5t-264 -269.5t-337.5 -82q-176 0 -307.5 65.5t-219.5 173t-132 245t-44 282.5zM219 608q0 -121 37 -237.5t109.5 -207.5t180 -146.5t251.5 -55.5q197 0 337 110.5 t188 263t48 273.5q0 195 -85 351.5t-216 225t-272 68.5q-143 0 -252 -55t-180.5 -146t-108.5 -207t-37 -237zM510 164v903h293q154 0 226.5 -68.5t72.5 -181.5q0 -117 -61.5 -177t-153.5 -79l243 -397h-141l-239 387h-117v-387h-123zM633 662h164q176 0 176 155 q0 141 -168 141h-172v-296z" />
<glyph unicode="&#xaf;" horiz-adv-x="860" d="M143 1243v127h574v-127h-574z" />
<glyph unicode="&#xb0;" horiz-adv-x="706" d="M78 1071q0 57 21.5 111.5t59.5 94.5t88 64.5t107 24.5q86 0 150.5 -49t94.5 -119t30 -127q0 -88 -46 -162.5t-108.5 -103.5t-120 -29t-107.5 23.5t-88 63.5t-59.5 93.5t-21.5 114.5zM195 1071q0 -47 26.5 -94t63.5 -62.5t69 -15.5q72 0 116 52.5t44 120t-44 119.5 t-116 52q-70 0 -114.5 -50t-44.5 -122z" />
<glyph unicode="&#xb1;" d="M59 0v137h932v-137h-932zM70 768v143h391v449h137v-449h391v-143h-391v-451h-137v451h-391z" />
<glyph unicode="&#xb2;" horiz-adv-x="583" d="M63 1280q37 35 92.5 66.5t137.5 31.5q100 0 155.5 -51t55.5 -131q0 -66 -29 -117t-94 -104l-105 -86q-61 -51 -61 -94h301v-107h-436v60q0 53 15.5 95t64.5 83l94 82q121 106 121 176q0 43 -26.5 66.5t-69.5 23.5q-35 0 -76 -17.5t-88 -64.5z" />
<glyph unicode="&#xb3;" horiz-adv-x="583" d="M70 754l43 94q78 -66 172 -66q53 0 87 29t34 82q0 70 -47.5 96.5t-112.5 26.5q-39 0 -76 -6v82q31 45 79 95t91 79h-240v104h375v-115q-47 -31 -98 -72.5t-82 -82.5q119 0 172 -63.5t53 -133.5q0 -104 -68.5 -163.5t-166.5 -59.5q-66 0 -124 21.5t-91 52.5z" />
<glyph unicode="&#xb4;" horiz-adv-x="860" d="M217 1190l326 285l100 -107l-352 -254z" />
<glyph unicode="&#xb5;" horiz-adv-x="1116" d="M156 -387v1364h151v-623q0 -135 58.5 -192.5t169.5 -57.5q90 0 150 38t85 91q18 37 18 142v602h152v-735q0 -70 12.5 -103t59.5 -33q29 0 53 9l22 -115q-51 -23 -100 -23q-66 0 -111 26t-67 95q-59 -63 -122.5 -92t-162.5 -29q-72 0 -130 24t-95 71v-459h-143z" />
<glyph unicode="&#xb6;" horiz-adv-x="985" d="M68 965q0 121 62.5 219t150.5 140t168 42h139v-1663h-139v862q-80 0 -149 32t-121 85t-81.5 126t-29.5 157zM717 -297v1663h139v-1663h-139z" />
<glyph unicode="&#xb7;" horiz-adv-x="561" d="M172 753.5q0 53.5 30.5 85t78.5 31.5q49 0 78.5 -31.5t29.5 -85t-29.5 -84t-78.5 -30.5q-47 0 -78 30.5t-31 84z" />
<glyph unicode="&#xb8;" horiz-adv-x="860" d="M266 -356l99 266h159l-139 -266h-119z" />
<glyph unicode="&#xb9;" horiz-adv-x="583" d="M96 1255l193 115h96v-680h-119v537l-119 -70z" />
<glyph unicode="&#xba;" horiz-adv-x="780" d="M68 1139q0 115 46 207t119.5 132t155.5 40q113 0 190.5 -66t105.5 -156t28 -161q0 -111 -48.5 -207.5t-122 -135t-153.5 -38.5q-111 0 -190.5 66.5t-105 156.5t-25.5 162zM193 1139q0 -84 28.5 -152.5t73.5 -95.5t94 -27q70 0 119 49.5t64.5 109.5t15.5 114 q0 82 -29 147.5t-75 94t-95 28.5q-72 0 -119 -47t-62 -108.5t-15 -112.5z" />
<glyph unicode="&#xbb;" horiz-adv-x="956" d="M47 199l307 323l-280 332l98 76l389 -418l-424 -401zM422 201l309 321l-282 328l100 80l379 -418l-414 -401z" />
<glyph unicode="&#xbc;" horiz-adv-x="1439" d="M51 57l1241 1315l86 -94l-1253 -1311zM96 1255l193 115h96v-680h-119v537l-119 -70zM803 137v96l334 439h94v-445h80v-90h-80v-137h-119v137h-309zM909 227h203v269z" />
<glyph unicode="&#xbd;" horiz-adv-x="1439" d="M-8 57l1241 1315l86 -94l-1253 -1311zM88 1255l193 115h96v-680h-119v537l-119 -70zM858 604q37 35 92.5 66.5t136.5 31.5q100 0 155.5 -51t55.5 -131q0 -66 -28.5 -117t-93.5 -104l-105 -86q-61 -51 -61 -94h301v-107h-437v60q0 53 15.5 95t64.5 83l95 82 q121 106 120 176q0 43 -26.5 66.5t-69.5 23.5q-35 0 -76 -17.5t-88 -64.5z" />
<glyph unicode="&#xbe;" horiz-adv-x="1439" d="M106 754l44 94q78 -66 172 -66q53 0 86.5 29t33.5 82q0 70 -47 96.5t-112 26.5q-39 0 -76 -6v82q31 45 79 95t91 79h-240v104h375v-115q-47 -31 -98.5 -72.5t-81.5 -82.5q119 0 172 -63.5t53 -133.5q0 -104 -68.5 -163.5t-166.5 -59.5q-66 0 -124.5 21.5t-91.5 52.5z M123 57l1241 1315l86 -94l-1253 -1311zM870 137v96l334 439h94v-445h80v-90h-80v-137h-118v137h-310zM977 227h203v269z" />
<glyph unicode="&#xbf;" horiz-adv-x="720" d="M8 -59q0 104 41 175.5t109 145.5q90 98 118.5 151.5t28.5 114.5v74h144v-86q0 -96 -45.5 -165.5t-98.5 -129.5q-143 -158 -143 -274q0 -104 53 -159.5t152 -55.5q88 0 153.5 54t116.5 132l102 -78q-82 -135 -182 -187t-197 -52q-174 0 -263 93t-89 247zM272 891 q0 51 29 80.5t76 29.5q45 0 74.5 -29.5t29.5 -80.5t-29.5 -82t-74.5 -31q-47 0 -76 31t-29 82z" />
<glyph unicode="&#xc0;" horiz-adv-x="1105" d="M0 0l485 1366h127l494 -1366h-170l-154 422h-475l-143 -422h-164zM324 1708l100 107l326 -285l-72 -76zM358 567h373l-188 566z" />
<glyph unicode="&#xc1;" horiz-adv-x="1105" d="M0 0l485 1366h127l494 -1366h-170l-154 422h-475l-143 -422h-164zM356 1530l326 285l100 -107l-352 -254zM358 567h373l-188 566z" />
<glyph unicode="&#xc2;" horiz-adv-x="1105" d="M0 0l485 1366h127l494 -1366h-170l-154 422h-475l-143 -422h-164zM256 1516l246 294h94l244 -294l-84 -62l-207 229l-205 -229zM358 567h373l-188 566z" />
<glyph unicode="&#xc3;" horiz-adv-x="1105" d="M0 0l485 1366h127l494 -1366h-170l-154 422h-475l-143 -422h-164zM205 1552q29 92 81 147.5t120 55.5q43 0 84.5 -21.5t78.5 -50.5q57 -45 101 -45q29 0 57.5 27t56.5 94l95 -49q-31 -94 -83.5 -147.5t-119.5 -53.5q-37 0 -72 16.5t-69 41.5q-82 59 -123 59 q-35 0 -59.5 -27.5t-53.5 -93.5zM358 567h373l-188 566z" />
<glyph unicode="&#xc4;" horiz-adv-x="1105" d="M0 0l485 1366h127l494 -1366h-170l-154 422h-475l-143 -422h-164zM274 1647q0 47 30 73.5t71 26.5t69.5 -26.5t28.5 -73.5q0 -49 -28.5 -75t-69.5 -26t-71 26t-30 75zM358 567h373l-188 566zM625 1647q0 47 29.5 73.5t70.5 26.5t69.5 -26.5t28.5 -73.5q0 -49 -28.5 -75 t-69.5 -26t-70.5 26t-29.5 75z" />
<glyph unicode="&#xc5;" horiz-adv-x="1105" d="M0 0l485 1366h127l494 -1366h-170l-154 422h-475l-143 -422h-164zM352 1636q0 61 28 110.5t72 72t91 22.5q63 0 111 -36t64.5 -83t16.5 -86q0 -59 -28.5 -110t-73.5 -71.5t-90 -20.5q-66 0 -113 34.5t-62.5 81.5t-15.5 86zM358 567h373l-188 566zM438 1636 q0 -45 27 -82.5t78 -37.5t77.5 37.5t26.5 82.5q0 47 -26.5 85t-77.5 38t-78 -38t-27 -85z" />
<glyph unicode="&#xc6;" horiz-adv-x="1673" d="M0 0l731 1366h858v-141h-602v-439h430v-141h-430v-504h647v-141h-803v422h-432l-225 -422h-174zM477 567h354v672z" />
<glyph unicode="&#xc7;" horiz-adv-x="1107" d="M96 678q0 264 92.5 436t216 225.5t224.5 53.5q141 0 241.5 -59.5t176.5 -188.5l-115 -94q-53 74 -92 110.5t-98.5 59t-116.5 22.5q-172 0 -268.5 -147.5t-96.5 -419.5q0 -133 29.5 -236.5t80 -174t120 -106.5t149.5 -36q119 0 192.5 37t141.5 102l57 -147 q-76 -76 -191.5 -109t-201.5 -33q-115 0 -213 40t-171 125t-115 218.5t-42 321.5zM457 -356l98 266h160l-140 -266h-118z" />
<glyph unicode="&#xc8;" horiz-adv-x="999" d="M158 0v1366h757v-141h-602v-439h430v-141h-432v-504h650v-141h-803zM309 1708l101 107l325 -285l-71 -76z" />
<glyph unicode="&#xc9;" horiz-adv-x="999" d="M158 0v1366h757v-141h-602v-439h430v-141h-432v-504h650v-141h-803zM362 1530l326 285l100 -107l-352 -254z" />
<glyph unicode="&#xca;" horiz-adv-x="999" d="M158 0v1366h757v-141h-602v-439h430v-141h-432v-504h650v-141h-803zM260 1516l246 294h94l244 -294l-84 -62l-207 229l-205 -229z" />
<glyph unicode="&#xcb;" horiz-adv-x="999" d="M158 0v1366h757v-141h-602v-439h430v-141h-432v-504h650v-141h-803zM268 1649q0 47 30 73.5t71 26.5t69.5 -26.5t28.5 -73.5q0 -49 -28.5 -75t-69.5 -26t-71 26t-30 75zM618 1649q0 47 30 73.5t71 26.5t69.5 -26.5t28.5 -73.5q0 -49 -28.5 -75t-69.5 -26t-71 26t-30 75z " />
<glyph unicode="&#xcc;" horiz-adv-x="471" d="M14 1708l101 107l325 -285l-71 -76zM158 0v1366h155v-1366h-155z" />
<glyph unicode="&#xcd;" horiz-adv-x="471" d="M51 1530l326 285l100 -107l-352 -254zM158 0v1366h155v-1366h-155z" />
<glyph unicode="&#xce;" horiz-adv-x="471" d="M-33 1516l246 294h94l244 -294l-84 -62l-207 229l-205 -229zM158 0v1366h155v-1366h-155z" />
<glyph unicode="&#xcf;" horiz-adv-x="471" d="M-20 1649q0 47 29.5 73.5t70.5 26.5t69.5 -26.5t28.5 -73.5q0 -49 -28.5 -75t-69.5 -26t-70.5 26t-29.5 75zM158 0v1366h155v-1366h-155zM330 1649q0 47 29.5 73.5t70.5 26.5t69.5 -26.5t28.5 -73.5q0 -49 -28.5 -75t-69.5 -26t-70.5 26t-29.5 75z" />
<glyph unicode="&#xd0;" horiz-adv-x="1212" d="M-2 647v127h160v592h336q76 0 157.5 -13.5t149.5 -47.5q141 -70 230 -218.5t89 -384.5q0 -244 -86 -403.5t-222 -229t-318 -69.5h-336v647h-160zM313 141h160q123 0 197 29q92 43 161.5 121t97 183.5t27.5 219.5q0 178 -52 287t-142 170q-57 39 -132 56.5t-147 17.5h-170 v-451h312v-127h-312v-506z" />
<glyph unicode="&#xd1;" horiz-adv-x="1280" d="M158 0v1366h157l654 -1018v1018h153v-1366h-114l-697 1083v-1083h-153zM328 1552q29 92 81 147.5t119 55.5q43 0 85 -21.5t79 -50.5q57 -45 101 -45q29 0 57.5 27t56.5 94l94 -49q-31 -94 -83 -147.5t-119 -53.5q-37 0 -72 16.5t-70 41.5q-82 59 -122 59 q-35 0 -59.5 -27.5t-53.5 -93.5z" />
<glyph unicode="&#xd2;" horiz-adv-x="1286" d="M96 684q0 213 74 385t201 248t272 76q203 0 332 -123t172 -288t43 -298t-32 -261t-98.5 -227.5t-170 -161t-246.5 -61.5t-246.5 61.5t-170 161t-98.5 227.5t-32 261zM258 684q0 -106 23.5 -207.5t70.5 -181.5t120 -128t171 -48q139 0 233.5 100t123 229.5t28.5 235.5 q0 168 -51 302t-142.5 197.5t-191.5 63.5q-143 0 -235.5 -99t-121 -229.5t-28.5 -234.5zM430 1708l100 107l326 -285l-72 -76z" />
<glyph unicode="&#xd3;" horiz-adv-x="1286" d="M96 684q0 213 74 385t201 248t272 76q203 0 332 -123t172 -288t43 -298t-32 -261t-98.5 -227.5t-170 -161t-246.5 -61.5t-246.5 61.5t-170 161t-98.5 227.5t-32 261zM258 684q0 -106 23.5 -207.5t70.5 -181.5t120 -128t171 -48q139 0 233.5 100t123 229.5t28.5 235.5 q0 168 -51 302t-142.5 197.5t-191.5 63.5q-143 0 -235.5 -99t-121 -229.5t-28.5 -234.5zM446 1530l326 285l100 -107l-352 -254z" />
<glyph unicode="&#xd4;" horiz-adv-x="1286" d="M96 684q0 213 74 385t201 248t272 76q203 0 332 -123t172 -288t43 -298t-32 -261t-98.5 -227.5t-170 -161t-246.5 -61.5t-246.5 61.5t-170 161t-98.5 227.5t-32 261zM258 684q0 -106 23.5 -207.5t70.5 -181.5t120 -128t171 -48q139 0 233.5 100t123 229.5t28.5 235.5 q0 168 -51 302t-142.5 197.5t-191.5 63.5q-143 0 -235.5 -99t-121 -229.5t-28.5 -234.5zM352 1516l246 294h94l244 -294l-84 -62l-207 229l-205 -229z" />
<glyph unicode="&#xd5;" horiz-adv-x="1286" d="M96 684q0 213 74 385t201 248t272 76q203 0 332 -123t172 -288t43 -298t-32 -261t-98.5 -227.5t-170 -161t-246.5 -61.5t-246.5 61.5t-170 161t-98.5 227.5t-32 261zM258 684q0 -106 23.5 -207.5t70.5 -181.5t120 -128t171 -48q139 0 233.5 100t123 229.5t28.5 235.5 q0 168 -51 302t-142.5 197.5t-191.5 63.5q-143 0 -235.5 -99t-121 -229.5t-28.5 -234.5zM299 1552q29 92 81 147.5t120 55.5q43 0 85 -21.5t79 -50.5q57 -45 100 -45q29 0 57.5 27t57.5 94l94 -49q-31 -94 -83 -147.5t-120 -53.5q-37 0 -71.5 16.5t-69.5 41.5 q-82 59 -123 59q-35 0 -59.5 -27.5t-53.5 -93.5z" />
<glyph unicode="&#xd6;" horiz-adv-x="1286" d="M96 684q0 213 74 385t201 248t272 76q203 0 332 -123t172 -288t43 -298t-32 -261t-98.5 -227.5t-170 -161t-246.5 -61.5t-246.5 61.5t-170 161t-98.5 227.5t-32 261zM258 684q0 -106 23.5 -207.5t70.5 -181.5t120 -128t171 -48q139 0 233.5 100t123 229.5t28.5 235.5 q0 168 -51 302t-142.5 197.5t-191.5 63.5q-143 0 -235.5 -99t-121 -229.5t-28.5 -234.5zM371 1649q0 47 29.5 73.5t70.5 26.5t69.5 -26.5t28.5 -73.5q0 -49 -28.5 -75t-69.5 -26t-70.5 26t-29.5 75zM721 1649q0 47 29.5 73.5t70.5 26.5t70 -26.5t29 -73.5q0 -49 -29 -75 t-70 -26t-70.5 26t-29.5 75z" />
<glyph unicode="&#xd7;" d="M162 408l262 276l-262 274l98 111l266 -278l267 278l96 -111l-262 -274l262 -276l-94 -113l-269 283l-268 -283z" />
<glyph unicode="&#xd8;" horiz-adv-x="1286" d="M96 684q0 213 74 385t201 248t272 76q117 0 206 -41t157 -113l120 160l107 -94l-141 -187q51 -98 74.5 -207.5t23.5 -226.5q0 -133 -32 -261t-98.5 -227.5t-170 -161t-246.5 -61.5q-100 0 -180 31t-146 86l-104 -139l-109 98l117 154q-63 100 -94 225t-31 256zM258 684 q0 -188 70 -342l581 770q-47 63 -112.5 99t-153.5 36q-143 0 -235.5 -99t-121 -229.5t-28.5 -234.5zM412 217q94 -98 231 -98q139 0 233.5 100t123 229.5t28.5 235.5q0 74 -11 146.5t-34 140.5z" />
<glyph unicode="&#xd9;" horiz-adv-x="1259" d="M150 457v909h155v-879q0 -174 85 -271t238.5 -97t239.5 94t86 274v879h156v-909q0 -172 -82 -289t-195.5 -155t-207.5 -40q-156 0 -270.5 70t-159.5 181.5t-45 232.5zM373 1708l100 107l326 -285l-72 -76z" />
<glyph unicode="&#xda;" horiz-adv-x="1259" d="M150 457v909h155v-879q0 -174 85 -271t238.5 -97t239.5 94t86 274v879h156v-909q0 -172 -82 -289t-195.5 -155t-207.5 -40q-156 0 -270.5 70t-159.5 181.5t-45 232.5zM451 1530l325 285l101 -107l-353 -254z" />
<glyph unicode="&#xdb;" horiz-adv-x="1259" d="M150 457v909h155v-879q0 -174 85 -271t238.5 -97t239.5 94t86 274v879h156v-909q0 -172 -82 -289t-195.5 -155t-207.5 -40q-156 0 -270.5 70t-159.5 181.5t-45 232.5zM352 1516l246 294h94l244 -294l-84 -62l-207 229l-205 -229z" />
<glyph unicode="&#xdc;" horiz-adv-x="1259" d="M150 457v909h155v-879q0 -174 85 -271t238.5 -97t239.5 94t86 274v879h156v-909q0 -172 -82 -289t-195.5 -155t-207.5 -40q-156 0 -270.5 70t-159.5 181.5t-45 232.5zM367 1649q0 47 29.5 73.5t70.5 26.5t69.5 -26.5t28.5 -73.5q0 -49 -28.5 -75t-69.5 -26t-70.5 26 t-29.5 75zM717 1649q0 47 29.5 73.5t70.5 26.5t69.5 -26.5t28.5 -73.5q0 -49 -28.5 -75t-69.5 -26t-70.5 26t-29.5 75z" />
<glyph unicode="&#xdd;" horiz-adv-x="1056" d="M0 1366h176l348 -553l363 553h170l-459 -709v-657h-156v655zM354 1530l326 285l100 -107l-352 -254z" />
<glyph unicode="&#xde;" horiz-adv-x="1038" d="M158 0v1366h155v-242h234q442 0 442 -411q0 -199 -114.5 -302.5t-331.5 -103.5h-230v-307h-155zM313 451h240q119 0 192.5 62t73.5 202q0 141 -69.5 205.5t-198.5 64.5h-238v-534z" />
<glyph unicode="&#xdf;" horiz-adv-x="1083" d="M39 848v129h135q4 205 97.5 310.5t267.5 105.5q166 0 261 -100.5t95 -274.5v-150h-150q-80 0 -118.5 -33.5t-38.5 -89.5q0 -70 51 -106.5t141 -69.5q127 -49 184.5 -121.5t57.5 -179.5q0 -100 -50 -168.5t-124 -95.5t-137 -27q-84 0 -151.5 21.5t-99.5 44.5t-46 37 l53 127q45 -41 101.5 -72t142.5 -31q76 0 122 37t46 106.5t-42 121t-165 98.5q-111 41 -169.5 103.5t-58.5 172.5q0 86 51.5 147.5t123 82t135.5 20.5q0 137 -59.5 206t-157.5 69q-96 0 -153.5 -66.5t-57.5 -224.5v-977h-152v848h-135z" />
<glyph unicode="&#xe0;" horiz-adv-x="915" d="M74 283q0 143 104.5 226t235.5 104.5t223 21.5v12q0 123 -50 176.5t-143 53.5q-66 0 -133 -26t-131 -77l-49 115q53 41 131 76.5t195 35.5q156 0 242.5 -83.5t86.5 -280.5v-637h-137l-6 84q-49 -51 -112.5 -79t-139.5 -28q-61 0 -117.5 19.5t-101.5 57.5t-71.5 95.5 t-26.5 133.5zM217 1368l100 107l326 -285l-72 -76zM225 281q0 -66 38 -111t77 -54.5t70 -9.5q68 0 124 30t103 71v303q-131 -4 -226.5 -27.5t-140.5 -75.5t-45 -126z" />
<glyph unicode="&#xe1;" horiz-adv-x="915" d="M74 283q0 143 104.5 226t235.5 104.5t223 21.5v12q0 123 -50 176.5t-143 53.5q-66 0 -133 -26t-131 -77l-49 115q53 41 131 76.5t195 35.5q156 0 242.5 -83.5t86.5 -280.5v-637h-137l-6 84q-49 -51 -112.5 -79t-139.5 -28q-61 0 -117.5 19.5t-101.5 57.5t-71.5 95.5 t-26.5 133.5zM225 281q0 -66 38 -111t77 -54.5t70 -9.5q68 0 124 30t103 71v303q-131 -4 -226.5 -27.5t-140.5 -75.5t-45 -126zM287 1190l325 285l101 -107l-353 -254z" />
<glyph unicode="&#xe2;" horiz-adv-x="915" d="M74 283q0 143 104.5 226t235.5 104.5t223 21.5v12q0 123 -50 176.5t-143 53.5q-66 0 -133 -26t-131 -77l-49 115q53 41 131 76.5t195 35.5q156 0 242.5 -83.5t86.5 -280.5v-637h-137l-6 84q-49 -51 -112.5 -79t-139.5 -28q-61 0 -117.5 19.5t-101.5 57.5t-71.5 95.5 t-26.5 133.5zM162 1176l246 294h94l243 -294l-83 -62l-207 229l-205 -229zM225 281q0 -66 38 -111t77 -54.5t70 -9.5q68 0 124 30t103 71v303q-131 -4 -226.5 -27.5t-140.5 -75.5t-45 -126z" />
<glyph unicode="&#xe3;" horiz-adv-x="915" d="M74 283q0 143 104.5 226t235.5 104.5t223 21.5v12q0 123 -50 176.5t-143 53.5q-66 0 -133 -26t-131 -77l-49 115q53 41 131 76.5t195 35.5q156 0 242.5 -83.5t86.5 -280.5v-637h-137l-6 84q-49 -51 -112.5 -79t-139.5 -28q-61 0 -117.5 19.5t-101.5 57.5t-71.5 95.5 t-26.5 133.5zM125 1212q29 92 81 147.5t120 55.5q43 0 85 -21.5t78 -50.5q57 -45 101 -45q29 0 57.5 27t57.5 94l94 -49q-31 -94 -83 -147.5t-120 -53.5q-37 0 -72 16.5t-69 41.5q-82 59 -123 59q-35 0 -59.5 -27.5t-53.5 -93.5zM225 281q0 -66 38 -111t77 -54.5t70 -9.5 q68 0 124 30t103 71v303q-131 -4 -226.5 -27.5t-140.5 -75.5t-45 -126z" />
<glyph unicode="&#xe4;" horiz-adv-x="915" d="M74 283q0 143 104.5 226t235.5 104.5t223 21.5v12q0 123 -50 176.5t-143 53.5q-66 0 -133 -26t-131 -77l-49 115q53 41 131 76.5t195 35.5q156 0 242.5 -83.5t86.5 -280.5v-637h-137l-6 84q-49 -51 -112.5 -79t-139.5 -28q-61 0 -117.5 19.5t-101.5 57.5t-71.5 95.5 t-26.5 133.5zM184 1309q0 47 30 73.5t71 26.5t69.5 -26.5t28.5 -73.5q0 -49 -28.5 -75t-69.5 -26t-71 26t-30 75zM225 281q0 -66 38 -111t77 -54.5t70 -9.5q68 0 124 30t103 71v303q-131 -4 -226.5 -27.5t-140.5 -75.5t-45 -126zM535 1309q0 47 29.5 73.5t70.5 26.5 t69.5 -26.5t28.5 -73.5q0 -49 -28.5 -75t-69.5 -26t-70.5 26t-29.5 75z" />
<glyph unicode="&#xe5;" horiz-adv-x="915" d="M74 283q0 143 104.5 226t235.5 104.5t223 21.5v12q0 123 -50 176.5t-143 53.5q-66 0 -133 -26t-131 -77l-49 115q53 41 131 76.5t195 35.5q156 0 242.5 -83.5t86.5 -280.5v-637h-137l-6 84q-49 -51 -112.5 -79t-139.5 -28q-61 0 -117.5 19.5t-101.5 57.5t-71.5 95.5 t-26.5 133.5zM225 281q0 -66 38 -111t77 -54.5t70 -9.5q68 0 124 30t103 71v303q-131 -4 -226.5 -27.5t-140.5 -75.5t-45 -126zM272 1296q0 61 28 110.5t72 72t91 22.5q63 0 111.5 -35.5t64.5 -83t16 -86.5q0 -59 -28.5 -110t-73.5 -71.5t-90 -20.5q-66 0 -113 34.5 t-62.5 81.5t-15.5 86zM358 1296q0 -45 27 -82.5t78 -37.5t77.5 37.5t26.5 82.5q0 47 -26.5 85t-77.5 38t-78 -38t-27 -85z" />
<glyph unicode="&#xe6;" horiz-adv-x="1507" d="M74 283q0 135 86 216t200.5 102.5t202.5 21.5h74v30q0 117 -52.5 170.5t-140.5 53.5q-66 0 -133 -26t-131 -77l-49 115q53 41 131 76.5t195 35.5q104 0 173.5 -37.5t106.5 -123.5q47 74 126 117.5t188 43.5q141 0 231 -77.5t120 -196.5t30 -229h-660q0 -184 80 -289 t231 -105q90 0 151.5 31t117.5 78l39 -129q-39 -35 -120 -71t-192 -36q-123 0 -214 42t-146 131q-51 -92 -138 -132.5t-173 -40.5q-68 0 -129.5 20.5t-106.5 59.5t-71.5 95.5t-26.5 130.5zM225 281q0 -86 48.5 -130.5t136.5 -44.5q111 0 169 51.5t58 137.5v205h-57 q-117 0 -200 -24.5t-119 -75.5t-36 -119zM786 623h476q-2 63 -20.5 111t-49.5 80t-71 47.5t-83 15.5q-92 0 -159.5 -58.5t-92.5 -195.5z" />
<glyph unicode="&#xe7;" horiz-adv-x="921" d="M90 485q0 195 76 319t172 160.5t174 36.5q102 0 180 -39.5t114 -87t52 -75.5l-104 -78q-45 70 -97.5 111.5t-142.5 41.5q-86 0 -153.5 -58t-95 -146t-27.5 -180.5t23.5 -164t63.5 -120.5t93 -75t112 -26q94 0 157 29t112 76l43 -129q-53 -47 -138.5 -75t-181.5 -28 q-84 0 -161.5 31t-137 94.5t-96.5 158.5t-37 224zM344 -356l98 266h160l-139 -266h-119z" />
<glyph unicode="&#xe8;" horiz-adv-x="989" d="M90 494q0 168 62.5 290.5t159 169.5t192.5 47q145 0 241.5 -75.5t132 -196.5t35.5 -231h-675q0 -184 79.5 -289t231.5 -105q90 0 159.5 31t125.5 78l38 -129q-45 -45 -138 -76t-189 -31q-209 0 -332 132.5t-123 384.5zM252 623h491q-4 84 -44 145t-97 85t-98 24 q-92 0 -159.5 -58.5t-92.5 -195.5zM270 1368l101 107l325 -285l-71 -76z" />
<glyph unicode="&#xe9;" horiz-adv-x="989" d="M90 494q0 168 62.5 290.5t159 169.5t192.5 47q145 0 241.5 -75.5t132 -196.5t35.5 -231h-675q0 -184 79.5 -289t231.5 -105q90 0 159.5 31t125.5 78l38 -129q-45 -45 -138 -76t-189 -31q-209 0 -332 132.5t-123 384.5zM252 623h491q-4 84 -44 145t-97 85t-98 24 q-92 0 -159.5 -58.5t-92.5 -195.5zM311 1190l326 285l100 -107l-352 -254z" />
<glyph unicode="&#xea;" horiz-adv-x="989" d="M90 494q0 168 62.5 290.5t159 169.5t192.5 47q145 0 241.5 -75.5t132 -196.5t35.5 -231h-675q0 -184 79.5 -289t231.5 -105q90 0 159.5 31t125.5 78l38 -129q-45 -45 -138 -76t-189 -31q-209 0 -332 132.5t-123 384.5zM221 1176l246 294h94l244 -294l-84 -62l-207 229 l-205 -229zM252 623h491q-4 84 -44 145t-97 85t-98 24q-92 0 -159.5 -58.5t-92.5 -195.5z" />
<glyph unicode="&#xeb;" horiz-adv-x="989" d="M90 494q0 168 62.5 290.5t159 169.5t192.5 47q145 0 241.5 -75.5t132 -196.5t35.5 -231h-675q0 -184 79.5 -289t231.5 -105q90 0 159.5 31t125.5 78l38 -129q-45 -45 -138 -76t-189 -31q-209 0 -332 132.5t-123 384.5zM238 1309q0 47 29.5 73.5t70.5 26.5t69.5 -26.5 t28.5 -73.5q0 -49 -28.5 -75t-69.5 -26t-70.5 26t-29.5 75zM252 623h491q-4 84 -44 145t-97 85t-98 24q-92 0 -159.5 -58.5t-92.5 -195.5zM588 1309q0 47 29.5 73.5t70.5 26.5t69.5 -26.5t28.5 -73.5q0 -49 -28.5 -75t-69.5 -26t-70.5 26t-29.5 75z" />
<glyph unicode="&#xec;" horiz-adv-x="417" d="M2 1368l100 107l326 -285l-72 -76zM135 0v977h150v-977h-150z" />
<glyph unicode="&#xed;" horiz-adv-x="417" d="M25 1190l325 285l101 -107l-353 -254zM135 0v977h150v-977h-150z" />
<glyph unicode="&#xee;" horiz-adv-x="417" d="M-70 1176l246 294h94l244 -294l-84 -62l-207 229l-205 -229zM135 0v977h150v-977h-150z" />
<glyph unicode="&#xef;" horiz-adv-x="417" d="M-51 1309q0 47 29.5 73.5t70.5 26.5t69.5 -26.5t28.5 -73.5q0 -49 -28.5 -75t-69.5 -26t-70.5 26t-29.5 75zM135 0v977h150v-977h-150zM299 1309q0 47 29.5 73.5t70.5 26.5t70 -26.5t29 -73.5q0 -49 -29 -75t-70 -26t-70.5 26t-29.5 75z" />
<glyph unicode="&#xf0;" horiz-adv-x="1044" d="M90 494q0 176 68.5 297.5t168 165.5t197.5 44q96 0 207 -51q-23 57 -56.5 109.5t-78.5 87.5l-61 -84l-86 59l59 84q-35 20 -88 40t-101 30l29 117q66 -8 128.5 -31t103.5 -49l61 88l86 -62l-61 -88q92 -78 161.5 -190.5t98 -245.5t28.5 -268q0 -150 -34.5 -257.5 t-93 -177t-136.5 -102.5t-164 -33q-92 0 -171 35t-138 100.5t-93 162t-34 219.5zM240 494q0 -186 81.5 -288t204.5 -102q92 0 158 56.5t94.5 161t28.5 223.5q0 78 -12.5 148.5t-26.5 111.5q-127 72 -242 72q-129 0 -207.5 -99.5t-78.5 -283.5z" />
<glyph unicode="&#xf1;" horiz-adv-x="1052" d="M135 0v977h137l11 -78q57 45 133 73.5t159 28.5q193 0 271 -98t78 -295v-608h-150v612q0 123 -52 192.5t-171 69.5q-76 0 -145.5 -33.5t-120.5 -74.5v-766h-150zM205 1212q29 92 81 147.5t120 55.5q43 0 84.5 -21.5t78.5 -50.5q57 -45 101 -45q29 0 57.5 27t56.5 94 l95 -49q-31 -94 -83.5 -147.5t-119.5 -53.5q-37 0 -72 16.5t-69 41.5q-82 59 -123 59q-35 0 -59.5 -27.5t-53.5 -93.5z" />
<glyph unicode="&#xf2;" horiz-adv-x="1042" d="M90 494q0 145 59.5 272t162 181t210.5 54q152 0 254.5 -87t140 -207.5t37.5 -217.5q0 -152 -64.5 -280.5t-162.5 -180t-205 -51.5q-109 0 -189.5 44.5t-134 117t-81 166t-27.5 189.5zM238 494q0 -117 40.5 -214.5t106.5 -136.5t137 -39q96 0 166 66t94.5 158t24.5 164 q0 113 -42 208t-107.5 136t-135.5 41q-104 0 -173.5 -70t-90 -155.5t-20.5 -157.5zM266 1368l101 107l325 -285l-71 -76z" />
<glyph unicode="&#xf3;" horiz-adv-x="1042" d="M90 494q0 145 59.5 272t162 181t210.5 54q152 0 254.5 -87t140 -207.5t37.5 -217.5q0 -152 -64.5 -280.5t-162.5 -180t-205 -51.5q-109 0 -189.5 44.5t-134 117t-81 166t-27.5 189.5zM238 494q0 -117 40.5 -214.5t106.5 -136.5t137 -39q96 0 166 66t94.5 158t24.5 164 q0 113 -42 208t-107.5 136t-135.5 41q-104 0 -173.5 -70t-90 -155.5t-20.5 -157.5zM322 1190l325 285l101 -107l-353 -254z" />
<glyph unicode="&#xf4;" horiz-adv-x="1042" d="M90 494q0 145 59.5 272t162 181t210.5 54q152 0 254.5 -87t140 -207.5t37.5 -217.5q0 -152 -64.5 -280.5t-162.5 -180t-205 -51.5q-109 0 -189.5 44.5t-134 117t-81 166t-27.5 189.5zM217 1176l246 294h94l244 -294l-84 -62l-207 229l-205 -229zM238 494 q0 -117 40.5 -214.5t106.5 -136.5t137 -39q96 0 166 66t94.5 158t24.5 164q0 113 -42 208t-107.5 136t-135.5 41q-104 0 -173.5 -70t-90 -155.5t-20.5 -157.5z" />
<glyph unicode="&#xf5;" horiz-adv-x="1042" d="M90 494q0 145 59.5 272t162 181t210.5 54q152 0 254.5 -87t140 -207.5t37.5 -217.5q0 -152 -64.5 -280.5t-162.5 -180t-205 -51.5q-109 0 -189.5 44.5t-134 117t-81 166t-27.5 189.5zM178 1212q29 92 81 147.5t120 55.5q43 0 85 -21.5t79 -50.5q57 -45 100 -45 q29 0 57.5 27t57.5 94l94 -49q-31 -94 -83 -147.5t-120 -53.5q-37 0 -71.5 16.5t-69.5 41.5q-82 59 -123 59q-35 0 -59.5 -27.5t-53.5 -93.5zM238 494q0 -117 40.5 -214.5t106.5 -136.5t137 -39q96 0 166 66t94.5 158t24.5 164q0 113 -42 208t-107.5 136t-135.5 41 q-104 0 -173.5 -70t-90 -155.5t-20.5 -157.5z" />
<glyph unicode="&#xf6;" horiz-adv-x="1042" d="M90 494q0 145 59.5 272t162 181t210.5 54q152 0 254.5 -87t140 -207.5t37.5 -217.5q0 -152 -64.5 -280.5t-162.5 -180t-205 -51.5q-109 0 -189.5 44.5t-134 117t-81 166t-27.5 189.5zM238 494q0 -117 40.5 -214.5t106.5 -136.5t137 -39q96 0 166 66t94.5 158t24.5 164 q0 113 -42 208t-107.5 136t-135.5 41q-104 0 -173.5 -70t-90 -155.5t-20.5 -157.5zM254 1309q0 47 29.5 73.5t70.5 26.5t70 -26.5t29 -73.5q0 -49 -29 -75t-70 -26t-70.5 26t-29.5 75zM604 1309q0 47 30 73.5t70.5 26.5t69.5 -26.5t29 -73.5q0 -49 -29 -75t-69.5 -26 t-70.5 26t-30 75z" />
<glyph unicode="&#xf7;" d="M66 608v144h919v-144h-919zM416 321.5q0 53.5 30.5 85t77.5 31.5q49 0 79 -31.5t30 -85t-30 -84t-79 -30.5q-47 0 -77.5 30.5t-30.5 84zM416 1052.5q0 53.5 30.5 85t77.5 31.5q49 0 79 -31.5t30 -85t-30 -84t-79 -30.5q-47 0 -77.5 30.5t-30.5 84z" />
<glyph unicode="&#xf8;" horiz-adv-x="1042" d="M90 494q0 145 59.5 272t162 181t210.5 54q96 0 180 -38l93 163l104 -65l-96 -170q78 -74 114.5 -179.5t36.5 -222.5q0 -152 -64.5 -280.5t-162.5 -180t-205 -51.5q-113 0 -194 48l-95 -166l-104 71l96 176q-68 74 -101.5 175.5t-33.5 212.5zM238 494q0 -70 15 -135.5 t46 -118.5l340 608q-53 29 -117 29q-104 0 -173.5 -70t-90 -155.5t-20.5 -157.5zM391 141q63 -37 131 -37q96 0 166 66t94.5 158t24.5 164q0 74 -18.5 144.5t-55.5 123.5z" />
<glyph unicode="&#xf9;" horiz-adv-x="1046" d="M129 358v619h150v-627q0 -129 56 -187.5t167 -58.5q72 0 142.5 32t115.5 77v764h153v-977h-139l-10 76q-57 -45 -123 -72t-164 -27q-184 0 -266 94t-82 287zM264 1368l101 107l325 -285l-72 -76z" />
<glyph unicode="&#xfa;" horiz-adv-x="1046" d="M129 358v619h150v-627q0 -129 56 -187.5t167 -58.5q72 0 142.5 32t115.5 77v764h153v-977h-139l-10 76q-57 -45 -123 -72t-164 -27q-184 0 -266 94t-82 287zM350 1190l326 285l100 -107l-352 -254z" />
<glyph unicode="&#xfb;" horiz-adv-x="1046" d="M129 358v619h150v-627q0 -129 56 -187.5t167 -58.5q72 0 142.5 32t115.5 77v764h153v-977h-139l-10 76q-57 -45 -123 -72t-164 -27q-184 0 -266 94t-82 287zM238 1176l245 294h95l243 -294l-84 -62l-207 229l-204 -229z" />
<glyph unicode="&#xfc;" horiz-adv-x="1046" d="M129 358v619h150v-627q0 -129 56 -187.5t167 -58.5q72 0 142.5 32t115.5 77v764h153v-977h-139l-10 76q-57 -45 -123 -72t-164 -27q-184 0 -266 94t-82 287zM254 1309q0 47 29.5 73.5t70.5 26.5t70 -26.5t29 -73.5q0 -49 -29 -75t-70 -26t-70.5 26t-29.5 75zM604 1309 q0 47 30 73.5t70.5 26.5t69.5 -26.5t29 -73.5q0 -49 -29 -75t-69.5 -26t-70.5 26t-30 75z" />
<glyph unicode="&#xfd;" horiz-adv-x="927" d="M-8 -256q147 0 222 37t122 102q29 47 45 82l-365 1012h168l293 -850q80 178 150.5 396t130.5 454h160q-96 -365 -184.5 -597.5t-155.5 -369.5q-39 -78 -81 -150.5t-103.5 -129t-154 -90t-231.5 -35.5zM305 1190l326 285l100 -107l-352 -254z" />
<glyph unicode="&#xfe;" horiz-adv-x="1021" d="M135 1366h148v-459q53 43 123.5 68.5t146.5 25.5q147 0 236.5 -86t116 -202.5t26.5 -212.5q0 -176 -75 -303t-181.5 -173.5t-206.5 -46.5q-53 0 -100 8.5t-82 24.5v-397h-152v1753zM287 147q23 -16 61.5 -29.5t91.5 -13.5q111 0 193 56.5t115.5 148.5t33.5 185 q0 113 -33.5 203.5t-96 133.5t-138.5 43q-63 0 -121.5 -28.5t-105.5 -75.5v-623z" />
<glyph unicode="&#xff;" horiz-adv-x="927" d="M-8 -256q147 0 222 37t122 102q29 47 45 82l-365 1012h168l293 -850q80 178 150.5 396t130.5 454h160q-96 -365 -184.5 -597.5t-155.5 -369.5q-39 -78 -81 -150.5t-103.5 -129t-154 -90t-231.5 -35.5zM215 1309q0 47 29.5 73.5t70.5 26.5t70 -26.5t29 -73.5 q0 -49 -29 -75t-70 -26t-70.5 26t-29.5 75zM565 1309q0 47 30 73.5t71 26.5t69.5 -26.5t28.5 -73.5q0 -49 -28.5 -75t-69.5 -26t-71 26t-30 75z" />
<glyph unicode="&#x152;" horiz-adv-x="1730" d="M96 702q0 322 180.5 493t511.5 171h859v-141h-603v-439h431v-141h-431v-504h648v-141h-904q-166 0 -293.5 48t-217 139.5t-135.5 221t-46 293.5zM258 694q0 -274 141.5 -413.5t395.5 -139.5h92v1084h-101q-252 0 -390 -133.5t-138 -397.5z" />
<glyph unicode="&#x153;" horiz-adv-x="1691" d="M90 494q0 145 59.5 272t162 181t210.5 54q127 0 214 -60t132 -159q49 104 134 161.5t204 57.5q145 0 241.5 -75.5t132.5 -196.5t36 -231h-676q0 -184 80 -289t231 -105q90 0 160 31t125 78l39 -129q-45 -45 -138.5 -76t-189.5 -31q-135 0 -234.5 58.5t-146.5 163.5 q-49 -98 -132 -160t-212 -62q-109 0 -189.5 44.5t-134 117t-81 166t-27.5 189.5zM238 494q0 -117 40.5 -214.5t106.5 -136.5t137 -39q96 0 166 66t94.5 158t24.5 164q0 113 -42 208t-107.5 136t-135.5 41q-104 0 -173.5 -70t-90 -155.5t-20.5 -157.5zM954 623h492 q-4 84 -44 145t-96.5 85t-99.5 24q-92 0 -159.5 -58.5t-92.5 -195.5z" />
<glyph unicode="&#x178;" horiz-adv-x="1056" d="M0 1366h176l348 -553l363 553h170l-459 -709v-657h-156v655zM258 1649q0 47 29.5 73.5t70.5 26.5t70 -26.5t29 -73.5q0 -49 -29 -75t-70 -26t-70.5 26t-29.5 75zM608 1649q0 47 30 73.5t71 26.5t69.5 -26.5t28.5 -73.5q0 -49 -28.5 -75t-69.5 -26t-71 26t-30 75z" />
<glyph unicode="&#x2c6;" horiz-adv-x="860" d="M137 1176l246 294h94l244 -294l-84 -62l-207 229l-205 -229z" />
<glyph unicode="&#x2dc;" horiz-adv-x="860" d="M94 1212q29 92 81 147.5t120 55.5q43 0 85 -21.5t79 -50.5q57 -45 100 -45q29 0 57.5 27t57.5 94l94 -49q-31 -94 -83 -147.5t-120 -53.5q-37 0 -71.5 16.5t-69.5 41.5q-82 59 -123 59q-35 0 -59.5 -27.5t-53.5 -93.5z" />
<glyph unicode="&#x2013;" horiz-adv-x="1024" d="M0 463v147h1026v-147h-1026z" />
<glyph unicode="&#x2014;" horiz-adv-x="2048" d="M0 463v147h2048v-147h-2048z" />
<glyph unicode="&#x2018;" horiz-adv-x="372" d="M78 1229q0 74 33.5 105.5t74.5 31.5q55 0 83 -37t28 -82q0 -53 -32 -82.5t-66 -34.5q2 -20 13 -41.5t26.5 -42t33 -37t31.5 -28.5l-45 -63q-47 29 -97 93t-66.5 117.5t-16.5 100.5z" />
<glyph unicode="&#x2019;" horiz-adv-x="372" d="M68 981q55 47 77.5 85t26.5 64q-35 4 -66.5 34t-31.5 83q0 45 27.5 82t82.5 37q53 0 81 -41t28 -96q0 -104 -62.5 -188.5t-117.5 -122.5z" />
<glyph unicode="&#x201a;" horiz-adv-x="372" d="M68 -156q35 31 67.5 72t36.5 78q-35 4 -66.5 33.5t-31.5 83.5q0 45 27.5 81.5t82.5 36.5q53 0 81 -41t28 -96q0 -84 -54.5 -172t-125.5 -139z" />
<glyph unicode="&#x201c;" horiz-adv-x="718" d="M78 1229q0 74 33.5 105.5t74.5 31.5q55 0 83 -37t28 -82q0 -53 -32 -82.5t-66 -34.5q2 -20 13 -41.5t26.5 -42t33 -37t31.5 -28.5l-45 -63q-47 29 -97 93t-66.5 117.5t-16.5 100.5zM424 1229q0 74 34 105.5t74 31.5q55 0 83 -37t28 -82q0 -53 -31.5 -82.5t-66.5 -34.5 q2 -20 13 -41.5t26.5 -42t33 -37t31.5 -28.5l-45 -63q-47 29 -97 93t-66.5 117.5t-16.5 100.5z" />
<glyph unicode="&#x201d;" horiz-adv-x="718" d="M68 981q55 47 77.5 85t26.5 64q-35 4 -66.5 34t-31.5 83q0 45 27.5 82t82.5 37q53 0 81 -41t28 -96q0 -104 -62.5 -188.5t-117.5 -122.5zM414 981q55 47 77.5 85t26.5 64q-35 4 -66.5 34t-31.5 83q0 45 27.5 82t82.5 37q53 0 81 -41t28 -96q0 -104 -62.5 -188.5 t-117.5 -122.5z" />
<glyph unicode="&#x201e;" horiz-adv-x="718" d="M68 -156q35 31 67.5 72t36.5 78q-35 4 -66.5 33.5t-31.5 83.5q0 45 27.5 81.5t82.5 36.5q53 0 81 -41t28 -96q0 -84 -54.5 -172t-125.5 -139zM414 -156q35 31 67.5 72t36.5 78q-35 4 -66.5 33.5t-31.5 83.5q0 45 27.5 81.5t82.5 36.5q53 0 81 -41t28 -96 q0 -84 -54.5 -172t-125.5 -139z" />
<glyph unicode="&#x2022;" horiz-adv-x="948" d="M98 793q0 123 61.5 219t147.5 137t168 41q115 0 205 -65.5t130 -158t40 -173.5q0 -117 -62.5 -217.5t-148.5 -139.5t-164 -39t-146.5 31t-119.5 84t-81 125t-30 156z" />
<glyph unicode="&#x2026;" horiz-adv-x="1079" d="M82 92q0 53 30.5 85t77.5 32q49 0 79 -32t30 -85t-29.5 -84t-79.5 -31q-47 0 -77.5 31t-30.5 84zM432 92q0 53 31 85t78 32q49 0 78.5 -32t29.5 -85t-29.5 -84t-78.5 -31q-47 0 -78 31t-31 84zM793 92q0 53 30.5 85t77.5 32q49 0 79 -32t30 -85t-30 -84t-79 -31 q-47 0 -77.5 31t-30.5 84z" />
<glyph unicode="&#x2039;" horiz-adv-x="581" d="M29 512l379 418l100 -80l-283 -328l310 -321l-93 -90z" />
<glyph unicode="&#x203a;" horiz-adv-x="581" d="M47 201l309 321l-282 328l102 80l377 -418l-414 -401z" />
<glyph unicode="&#x20ac;" d="M76 461v139h676v-139h-355q16 -174 91 -256t196 -82q90 0 153.5 39t110.5 88l68 -133q-76 -76 -164 -108t-182 -32q-184 0 -299 121t-140 363h-155zM76 741v142h155q25 236 133.5 365.5t299.5 129.5q125 0 206.5 -54t147.5 -148l-98 -107q-49 70 -106.5 116t-151.5 46 q-129 0 -190.5 -89t-76.5 -259h357v-142h-676z" />
<glyph unicode="&#x2122;" horiz-adv-x="1206" d="M37 1264v102h418v-102h-156v-486h-106v486h-156zM545 778v588h117l165 -444l158 444h115v-588h-109v346l-129 -350h-74l-135 361v-357h-108z" />
<glyph unicode="&#xe000;" horiz-adv-x="975" d="M0 975h975v-975h-975v975z" />
<glyph unicode="&#xfb01;" horiz-adv-x="993" d="M39 848v129h137v72q0 127 57.5 209.5t138.5 108.5t154 26q94 0 175 -32t126 -63l-59 -112q-43 31 -108.5 56.5t-133.5 25.5q-100 0 -150 -49.5t-50 -171.5v-70h221v-129h-219v-848h-152v848h-137zM711 0v977h149v-977h-149z" />
<glyph unicode="&#xfb02;" horiz-adv-x="1103" d="M59 848v129h125v33q0 143 66.5 229t168 115.5t195.5 29.5q84 0 148.5 -10t105.5 -22v-1119q0 -68 20.5 -97.5t63.5 -29.5q39 0 97 29l34 -117q-27 -14 -66.5 -25t-86.5 -11q-121 0 -165 67.5t-44 208.5v985q-45 10 -105 10q-96 0 -160.5 -26.5t-93 -84t-28.5 -124.5v-41 h207v-129h-205v-848h-152v848h-125z" />
<glyph unicode="&#xfb03;" horiz-adv-x="1558" d="M39 848v129h137v72q0 131 44 212.5t110.5 106.5t128.5 25q86 0 164 -29l-15 -131q-29 14 -65.5 21.5t-71.5 7.5q-96 0 -120.5 -59.5t-24.5 -155.5v-70h221v-129h-219v-848h-152v848h-137zM608 848v129h137v72q0 131 44.5 212.5t111 106.5t127.5 25q86 0 164 -29l-14 -131 q-29 14 -66 21.5t-72 7.5q-96 0 -120.5 -59.5t-24.5 -155.5v-70h221v-129h-219v-848h-152v848h-137zM1249 1249q0 47 30 74t71 27t69.5 -27t28.5 -74q0 -49 -28.5 -74.5t-69.5 -25.5t-71 25.5t-30 74.5zM1274 0v977h151v-977h-151z" />
<glyph unicode="&#xfb04;" horiz-adv-x="1646" d="M39 848v129h137v72q0 131 44 212.5t110.5 106.5t128.5 25q86 0 164 -29l-15 -131q-29 14 -65.5 21.5t-71.5 7.5q-96 0 -120.5 -59.5t-24.5 -155.5v-70h221v-129h-219v-848h-152v848h-137zM608 848v129h137v72q0 131 44.5 212.5t111 106.5t127.5 25q86 0 164 -29l-14 -131 q-29 14 -66 21.5t-72 7.5q-96 0 -120.5 -59.5t-24.5 -155.5v-70h221v-129h-219v-848h-152v848h-137zM1262 258v1108h149v-1133q0 -68 20.5 -97.5t63.5 -29.5q39 0 96 29l35 -117q-27 -14 -66.5 -25t-86.5 -11q-121 0 -166 67.5t-45 208.5z" />
</font>
</defs>
</svg>
